<svg xmlns="http://www.w3.org/2000/svg" viewBox="0 0 200 200">
  <!-- Browser-tab icon: the Room Within symbol on the brand cream.
       Next.js picks this up automatically as the favicon. -->
  <rect width="200" height="200" rx="34" fill="#faf6ec"/>
  <g transform="translate(100 104) scale(0.86) translate(-100 -100)"
     fill="none" stroke="#bf7b4b" stroke-width="9"
     stroke-linecap="round" stroke-linejoin="round">
    <path d="M38 168 V78 L100 20 L162 78 V168"/>
    <path d="M100 54 C84 78 84 106 100 122 C116 106 116 78 100 54 Z"/>
    <path d="M100 92 V168"/>
    <path d="M100 152 C86 150 68 141 57 118 C77 122 94 134 100 152 Z"/>
    <path d="M100 152 C114 150 132 141 143 118 C123 122 106 134 100 152 Z"/>
  </g>
</svg>
